<svg xmlns="http://www.w3.org/2000/svg" viewBox="0 0 512 512">
<!-- An alternative to icon.svg: the same lamp, the smoke rising in a plume with a reaching wisp. -->
<defs>
<linearGradient id="ground" x2="1" y2="1"><stop stop-color="#2a2a2a"/><stop offset="1" stop-color="#121212"/></linearGradient>
<radialGradient id="glow" cx="300" cy="170" r="250" gradientUnits="userSpaceOnUse"><stop stop-color="#6b5cff" stop-opacity=".24"/><stop offset="1" stop-color="#6b5cff" stop-opacity="0"/></radialGradient>
<filter id="soft" x="-20%" y="-20%" width="140%" height="140%"><feGaussianBlur stdDeviation="14"/></filter>
<linearGradient id="brass" x1="0" y1="272" x2="0" y2="398" gradientUnits="userSpaceOnUse"><stop stop-color="#ffe9a8"/><stop offset=".4" stop-color="#eab95b"/><stop offset="1" stop-color="#9c6424"/></linearGradient>
<linearGradient id="spout" x1="438" y1="236" x2="308" y2="370.1" gradientUnits="userSpaceOnUse"><stop stop-color="#ffe6a0"/><stop offset="1" stop-color="#c88f3a"/></linearGradient>
<linearGradient id="brassH" x1="0" y1="302" x2="0" y2="392" gradientUnits="userSpaceOnUse"><stop stop-color="#f3c96e"/><stop offset="1" stop-color="#8e5a1d"/></linearGradient>
<linearGradient id="brassLid" x1="0" y1="230" x2="0" y2="312" gradientUnits="userSpaceOnUse"><stop stop-color="#fff2c6"/><stop offset="1" stop-color="#d9a446"/></linearGradient>
<linearGradient id="brassLip" x1="0" y1="305" x2="0" y2="319" gradientUnits="userSpaceOnUse"><stop stop-color="#fff4d0"/><stop offset="1" stop-color="#b98232"/></linearGradient>
<linearGradient id="foot" x1="0" y1="412" x2="0" y2="434" gradientUnits="userSpaceOnUse"><stop stop-color="#e3ad52"/><stop offset="1" stop-color="#8a5a1e"/></linearGradient>
<linearGradient id="smokeA" x1="438" y1="236" x2="446" y2="84" gradientUnits="userSpaceOnUse"><stop stop-color="#f4f0ff"/><stop offset=".45" stop-color="#b3b4ff" stop-opacity=".85"/><stop offset=".85" stop-color="#8a76ff" stop-opacity=".7"/><stop offset="1" stop-color="#a596ff" stop-opacity=".75"/></linearGradient>
<linearGradient id="smokeB" x1="0" y1="236" x2="0" y2="86" gradientUnits="userSpaceOnUse"><stop stop-color="#efeaff" stop-opacity=".75"/><stop offset="1" stop-color="#9d8cff" stop-opacity=".3"/></linearGradient>
<linearGradient id="smokeArm" x1="402" y1="0" x2="302" y2="0" gradientUnits="userSpaceOnUse"><stop stop-color="#b3b4ff" stop-opacity=".8"/><stop offset="1" stop-color="#9d8cff" stop-opacity=".2"/></linearGradient>
<linearGradient id="haze" x1="438" y1="236" x2="446" y2="84" gradientUnits="userSpaceOnUse"><stop stop-color="#b9b0ff" stop-opacity=".2"/><stop offset=".5" stop-color="#8f7dff"/><stop offset="1" stop-color="#6a58f0" stop-opacity=".7"/></linearGradient>
</defs>
<rect x="10" y="10" width="492" height="492" rx="108" fill="url(#ground)" stroke="#464646" stroke-width="4"/>
<rect x="12" y="12" width="488" height="488" rx="106" fill="url(#glow)"/>
<g filter="url(#soft)" opacity=".42"><path d="M447.8 234.7C450.1 230.4 459.3 219.7 461.2 209.3C463.1 198.8 462 183.9 459.1 172C456.1 160 447.4 147 443.7 137.7C440 128.4 437.1 120.6 436.8 116.2C436.5 111.7 441.6 112 441.7 111.1C441.8 110.1 439 111.9 437.5 110.5C436.1 109.2 433.4 106.4 433 103C432.6 99.6 433.8 93.8 435.2 90.1C436.6 86.4 439.9 83.3 441.5 80.8C443.1 78.2 443.5 76.1 444.6 74.7C445.8 73.3 448.4 72.4 448.3 72.3C448.3 72.2 445 73.7 444.3 73.9A10.2 10.2 0 0 0 447.7 94.1C451 93.7 462.4 97.1 467.7 91.7C473 86.2 481.6 71.4 479.4 61.3C477.2 51.2 465.6 37.1 454.5 31.2C443.4 25.3 426.7 24.3 412.8 25.9C398.9 27.5 383.4 32.4 371 41C358.6 49.6 345.3 62.8 338.5 77.5C331.7 92.1 327.5 113.2 330.3 128.9C333.1 144.6 345.5 161.6 355.2 171.8C364.9 182.1 378.7 185.6 388.3 190.3C398 195 406.5 196.6 412.9 200C419.3 203.4 424.3 205.9 426.8 210.7C429.4 215.6 427.9 226.2 428.2 229.3A10.2 10.2 0 0 0 447.8 234.7Z" fill="url(#haze)"/></g>
<path d="M406.3 123.7C399.2 121.8 377.9 113.3 363.5 112.1C349.1 110.9 332.3 112.7 320.1 116.7C307.8 120.8 295.9 128.6 289.9 136.3C283.9 144 282.2 156.1 284.1 162.9C286 169.7 295.6 175.8 301.4 176.9C307.2 178.1 315.8 171.1 318.7 169.9A2 2 0 0 0 317.3 166.1C314.8 166.9 306.8 171.9 302.6 171.1C298.4 170.2 292.6 165.6 291.9 161.1C291.1 156.5 292.8 148.6 298.1 143.7C303.4 138.7 313.5 133.2 323.9 131.3C334.3 129.3 348.2 129.1 360.5 131.9C372.8 134.7 391.5 145.5 397.7 148.3A13 13 0 0 0 406.3 123.7Z" fill="url(#smokeArm)"/>
<path d="M440.9 232.8C442.7 228.9 450.7 218.8 452 209.7C453.3 200.6 452 188.5 448.8 178.2C445.6 167.9 437.2 156.7 432.7 148.1C428.1 139.5 423.5 132.2 421.6 126.5C419.8 120.9 421.9 118 421.5 114.3C421.2 110.6 419.4 108.3 419.3 104.4C419.2 100.6 419.2 95.7 421.1 91.1C423 86.5 426.7 80.5 430.6 76.9C434.5 73.3 440.6 70.5 444.4 69.5C448.3 68.6 452 69.8 453.6 71.2C455.2 72.7 455.5 76.5 454.1 78.1C452.8 79.7 446.9 80.6 445.5 81A3 3 0 0 0 446.5 87C449.1 86.8 457.9 89.6 461.9 85.9C465.9 82.2 472.1 72 470.4 64.8C468.7 57.5 460.4 46.7 451.6 42.5C442.7 38.2 428.9 37.4 417.4 39.1C406 40.9 393 45.5 382.9 52.9C372.8 60.3 362.1 71.4 356.7 83.6C351.3 95.7 348.2 112.7 350.5 125.7C352.7 138.7 362.2 152.4 370.4 161.5C378.5 170.5 390.5 174.5 399.3 179.9C408.1 185.3 417.1 188.7 423.2 193.8C429.3 198.9 434 204.1 436 210.3C438 216.6 435.3 227.7 435.1 231.2A3 3 0 0 0 440.9 232.8Z" fill="url(#smokeA)"/>
<path d="M440.4 209.9C438.9 206.3 436.5 195.2 431.5 188.2C426.6 181.2 418.1 174.4 410.8 167.9C403.4 161.4 394.2 157 387.4 149.3C380.6 141.6 372.8 126.3 369.9 121.8A2.7 2.7 0 0 0 365.1 124.2C367.3 129.6 371.5 148.1 378 156.9C384.5 165.6 395.7 170.7 403.9 176.6C412.1 182.4 421.2 186.3 427.1 192C433 197.6 437.3 207.4 439.3 210.5A0.6 0.6 0 0 0 440.4 209.9Z" fill="#fff" fill-opacity=".35"/>
<path d="M451.1 209.5C449.2 205 447.3 189.2 439.9 182.8C432.4 176.3 416.3 175.5 406.5 171C396.8 166.5 383.7 163.9 381.1 155.7C378.5 147.4 385.6 130.3 391 121.6C396.3 112.9 409.7 106.3 413.4 103.3A1.3 1.3 0 0 0 411.9 101.2C407.4 103.9 391.5 108.2 385 117.8C378.5 127.3 369.8 148.2 372.8 158.2C375.9 168.3 392.7 173.4 403.4 178C414.1 182.7 429.5 180.8 437.3 186.1C445.1 191.4 448 206 450.1 209.9A0.5 0.5 0 0 0 451.1 209.5Z" fill="#f4f0ff" fill-opacity=".55"/>
<path d="M125.1 315.5A36 36 0 1 0 120.6 378.9" fill="none" stroke="url(#brassH)" stroke-width="18"/>
<path d="M332 312L432 229.3 444 242.7 308 370.1Z" fill="url(#spout)"/>
<path d="M428.7 225.5 447.3 246.5 442.1 251.1 423.5 230.2Z" fill="url(#brassLid)"/>
<path d="M110 312A114 86 0 0 0 338 312Z" fill="url(#brass)"/>
<path d="M160 312A64 46 0 0 1 288 312Z" fill="url(#brassLid)"/>
<path d="M218 269h12v-16h-12Z" fill="url(#brassLid)"/>
<circle cx="224" cy="242" r="12" fill="url(#brassLid)"/>
<path d="M208 392H240V412H208Z" fill="#8a5a1e"/>
<path d="M178 412 270 412 298 434 150 434Z" fill="url(#foot)"/>
<rect x="96" y="305" width="256" height="14" rx="3" fill="url(#brassLip)"/>
<path d="M134 330A90 60 0 0 0 206 384" fill="none" stroke="#fff6d6" stroke-opacity=".5" stroke-width="8" stroke-linecap="round"/>
</svg>
